<svg xmlns="http://www.w3.org/2000/svg" width="239.384" height="204.491" viewBox="0 0 239.384 204.491"><g transform="translate(249.546 213.784) rotate(180)"><path d="M244,210l-13-25" fill="none" stroke="#ffb741" stroke-width="2"/><path d="M198,210l-13-25" fill="none" stroke="#ffb741" stroke-width="2"/><path d="M154.5,208.5l-8-25" fill="none" stroke="#ffb741" stroke-width="2"/><path d="M108.5,208.5l-8-25" fill="none" stroke="#ffb741" stroke-width="2"/><path d="M67.5,213.5l-8-27" fill="none" stroke="#ffb741" stroke-width="2"/><path d="M24.5,213.5l-8-27" fill="none" stroke="#ffb741" stroke-width="2"/><path d="M241.5,165.5l-14-23" fill="none" stroke="#ffb741" stroke-width="2"/><path d="M198.5,165.5l-14-23" fill="none" stroke="#ffb741" stroke-width="2"/><path d="M155.5,166.5l-14-25" fill="none" stroke="#ffb741" stroke-width="2"/><path d="M114,165l-13-25" fill="none" stroke="#ffb741" stroke-width="2"/><path d="M69,165,56,140" fill="none" stroke="#ffb741" stroke-width="2"/><path d="M24.5,167.5l-8-25" fill="none" stroke="#ffb741" stroke-width="2"/><path d="M245,120l-20-20" fill="none" stroke="#ffb741" stroke-width="2"/><path d="M199.5,120.5l-15-20" fill="none" stroke="#ffb741" stroke-width="2"/><path d="M156,122,141,99" fill="none" stroke="#ffb741" stroke-width="2"/><path d="M111.5,121.5l-14-23" fill="none" stroke="#ffb741" stroke-width="2"/><path d="M69.5,122.5l-14-25" fill="none" stroke="#ffb741" stroke-width="2"/><path d="M28,122,15,97" fill="none" stroke="#ffb741" stroke-width="2"/><path d="M249,75,226,60" fill="none" stroke="#ffb741" stroke-width="2"/><path d="M201.5,75.5l-20-15" fill="none" stroke="#ffb741" stroke-width="2"/><path d="M161,74,141,54" fill="none" stroke="#ffb741" stroke-width="2"/><path d="M115,74,95,54" fill="none" stroke="#ffb741" stroke-width="2"/><path d="M73,77,58,54" fill="none" stroke="#ffb741" stroke-width="2"/><path d="M247.5,29.5l-23-14" fill="none" stroke="#ffb741" stroke-width="2"/><path d="M205.5,29.5l-23-14" fill="none" stroke="#ffb741" stroke-width="2"/><path d="M162,30,139,15" fill="none" stroke="#ffb741" stroke-width="2"/><path d="M118,30,95,15" fill="none" stroke="#ffb741" stroke-width="2"/><path d="M74,30,54,10" fill="none" stroke="#ffb741" stroke-width="2"/><path d="M26,33,11,10" fill="none" stroke="#ffb741" stroke-width="2"/><path d="M29.5,77.5l-14-23" fill="none" stroke="#ffb741" stroke-width="2"/></g></svg>